<?xml version="1.0" standalone="no"?>
<!DOCTYPE svg PUBLIC "-//W3C//DTD SVG 20010904//EN"
 "http://www.w3.org/TR/2001/REC-SVG-20010904/DTD/svg10.dtd">
<svg version="1.0" xmlns="http://www.w3.org/2000/svg"
 width="1616.000000pt" height="1616.000000pt" viewBox="0 0 1616.000000 1616.000000"
 preserveAspectRatio="xMidYMid meet">
<metadata>
Created by potrace 1.14, written by Peter Selinger 2001-2017
</metadata>
<g transform="translate(0.000000,1616.000000) scale(0.100000,-0.100000)"
fill="#000000" stroke="none">
<path d="M0 11216 l0 -1583 290 -289 c160 -159 439 -436 620 -616 181 -181
331 -328 332 -328 2 0 3 705 3 1568 0 862 2 1575 4 1585 3 16 84 17 1587 15
871 -2 1584 0 1584 3 0 5 -341 347 -918 919 l-313 310 -1595 0 -1594 0 0
-1584z"/>
<path d="M5685 12185 l-620 -615 1590 -2 1590 -3 1 -1575 c1 -866 2 -1579 3
-1584 0 -5 133 122 294 282 160 160 440 438 621 618 l330 326 0 1582 0 1581
-1595 3 -1595 2 -619 -615z"/>
<path d="M11060 12790 l-35 -5 1 -955 c1 -525 2 -961 3 -968 1 -10 42 -12 189
-11 104 2 194 -1 200 -5 7 -4 15 -1 18 9 4 9 7 165 8 348 l1 331 25 6 c14 4
30 3 37 -2 7 -5 14 -5 17 1 4 6 18 6 36 1 18 -5 32 -5 36 1 4 6 10 6 18 0 7
-6 15 -8 19 -5 7 7 100 9 113 2 5 -3 17 -3 26 1 9 3 67 4 128 1 62 -3 114 -3
116 -1 2 2 19 5 36 6 116 5 269 77 363 170 201 198 241 554 89 793 -65 101
-183 203 -271 233 -21 7 -42 16 -48 20 -40 26 -137 31 -603 33 -268 0 -503 -1
-522 -4z m929 -370 c9 -4 30 -14 46 -21 42 -19 94 -76 120 -132 40 -84 17
-215 -47 -278 -86 -82 -102 -86 -408 -85 l-255 1 -1 262 -1 262 265 0 c146 -1
272 -4 281 -9z"/>
<path d="M12775 12790 l-100 -5 0 -177 0 -178 25 0 c14 -1 142 -2 285 -3 l260
-2 2 -780 c0 -429 2 -783 2 -786 1 -10 61 -17 61 -8 0 7 40 4 68 -6 6 -2 12
-1 12 3 0 4 62 7 137 7 l138 0 0 787 0 788 265 0 c146 1 275 1 286 1 26 -1 36
36 24 80 -5 16 -6 29 -2 29 4 0 7 14 7 30 0 17 -3 30 -6 30 -3 0 -3 20 1 45 4
25 3 45 -1 45 -4 0 -4 14 1 30 5 17 5 30 0 30 -4 0 -6 9 -3 20 3 11 1 20 -3
20 -65 4 -1386 4 -1459 0z"/>
<path d="M11037 9485 c-3 -5 0 -18 5 -27 5 -11 5 -25 -1 -36 -7 -13 -7 -22 0
-29 8 -8 8 -13 0 -17 -7 -4 -7 -15 -1 -30 5 -13 6 -26 4 -29 -9 -9 -10 -71 -2
-89 5 -11 5 -18 -1 -18 -7 0 -7 -9 -1 -25 5 -14 6 -25 2 -25 -4 0 -7 -18 -7
-40 0 -22 3 -40 7 -40 4 0 3 -11 -2 -25 -6 -16 -6 -25 1 -25 6 0 6 -6 0 -18
-6 -10 -6 -24 -1 -32 5 -8 6 -19 3 -24 -10 -15 -10 -56 0 -56 4 0 4 -8 -2 -17
-6 -11 -6 -24 0 -35 6 -10 6 -18 1 -18 -10 0 -8 -42 3 -59 3 -6 2 -11 -2 -11
-10 0 -8 -63 2 -79 3 -6 2 -11 -4 -11 -7 0 -7 -8 -2 -23 5 -13 5 -30 0 -39 -6
-10 -6 -19 0 -23 8 -4 151 -9 187 -6 6 1 10 51 11 141 l0 139 34 38 c18 21 36
38 40 38 4 0 31 -31 60 -70 29 -38 58 -75 64 -82 19 -22 30 -38 55 -73 13 -19
29 -40 35 -46 5 -6 17 -22 25 -34 8 -12 20 -29 26 -37 8 -12 35 -15 133 -15
67 0 124 2 126 4 2 1 -13 21 -33 44 -20 22 -48 56 -62 74 -14 18 -37 47 -52
64 -44 52 -62 73 -88 107 -14 18 -30 37 -35 43 -6 6 -28 34 -50 61 -22 28 -42
52 -45 55 -29 29 -30 37 -8 62 13 13 43 48 68 78 25 29 53 62 63 74 10 11 26
30 35 41 9 11 42 50 72 85 30 35 63 74 72 85 10 11 16 25 15 30 -3 15 -219 13
-234 -2 -7 -6 -13 -14 -13 -18 0 -4 -6 -12 -12 -20 -7 -7 -24 -27 -38 -45 -14
-18 -29 -37 -35 -44 -5 -6 -23 -29 -39 -51 -16 -22 -36 -47 -43 -55 -7 -8 -36
-44 -64 -80 -28 -36 -54 -66 -58 -68 -3 -1 -6 86 -6 193 1 107 -1 196 -4 196
-30 8 -201 3 -204 -6z"/>
<path d="M12065 9247 c-27 -7 -63 -20 -80 -29 -63 -32 -95 -53 -95 -63 0 -5
14 -34 30 -63 l31 -52 44 30 c25 17 45 28 45 24 0 -3 7 -1 15 6 8 7 15 9 15 5
0 -4 6 -3 13 2 19 14 110 9 148 -10 43 -20 61 -51 64 -108 3 -66 -2 -72 -38
-45 -46 35 -104 52 -172 50 -91 -2 -121 -13 -169 -59 -49 -49 -70 -108 -63
-177 7 -58 26 -95 73 -141 73 -71 228 -76 323 -11 46 31 49 30 46 -6 l-3 -30
90 0 89 0 -2 254 c0 140 -4 257 -7 261 -3 3 -7 14 -9 25 -8 51 -89 118 -167
137 -49 12 -175 11 -221 0z m185 -392 c34 -18 40 -28 44 -77 4 -39 -15 -64
-63 -84 -65 -27 -146 -14 -182 29 -41 49 -16 120 51 145 34 13 113 6 150 -13z"/>
<path d="M14930 9248 c-19 -5 -42 -12 -50 -15 -8 -3 -17 -7 -20 -7 -12 -2 -99
-57 -105 -65 -5 -9 20 -61 49 -103 12 -16 15 -15 50 8 105 72 257 62 291 -19
13 -33 15 -111 2 -123 -4 -4 -7 -2 -7 4 0 6 -25 23 -55 38 -81 38 -187 41
-254 8 -79 -40 -125 -124 -117 -212 4 -39 43 -132 56 -132 3 0 17 -10 29 -22
31 -29 86 -46 138 -44 24 0 43 -2 43 -5 0 -9 94 24 98 34 2 4 9 7 16 7 7 0 22
9 34 20 l22 21 0 -36 0 -35 88 0 89 0 -2 253 c-1 216 -4 258 -19 292 -40 92
-121 137 -256 140 -47 1 -101 -2 -120 -7z m183 -399 c34 -22 37 -28 37 -71 0
-45 -2 -48 -45 -74 -39 -22 -54 -26 -101 -22 -64 5 -104 31 -115 73 -11 38 12
90 48 107 43 22 132 15 176 -13z"/>
<path d="M12643 9242 c-13 -2 -23 -11 -24 -20 0 -9 -2 -158 -2 -329 l-2 -313
25 -1 c14 0 54 -1 88 -2 51 -2 66 1 73 15 6 10 5 19 -1 23 -7 4 -7 12 0 25 7
13 7 21 0 25 -8 5 -8 11 0 20 8 9 8 15 0 20 -6 4 -7 12 -1 23 6 11 6 24 0 35
-6 9 -6 17 -2 17 4 0 8 13 8 29 0 16 -3 27 -7 24 -5 -2 -4 7 2 21 6 16 6 27
-1 31 -6 4 -6 13 0 23 6 10 6 23 0 34 -6 12 -6 18 0 18 7 0 7 9 1 25 -5 14 -6
25 -2 25 9 0 8 42 -1 57 -13 20 8 23 142 22 l131 -1 0 -254 0 -254 50 -1 c28
-1 59 -1 70 -1 63 0 58 -32 58 332 1 182 -2 330 -6 331 -21 3 -581 3 -599 1z"/>
<path d="M13407 9238 c-13 -8 -17 -188 -4 -188 4 0 5 -6 0 -12 -10 -17 -11
-228 0 -228 4 0 5 -6 0 -12 -4 -7 -8 -59 -8 -115 l0 -103 42 -1 c129 -3 143
-1 143 16 0 8 5 15 10 15 6 0 10 6 10 13 0 7 9 23 20 35 11 12 20 26 20 32 0
6 7 13 15 16 8 4 15 10 15 16 0 8 77 126 91 138 3 3 16 23 29 45 29 47 60 83
61 69 0 -5 1 -96 2 -202 l2 -194 83 -1 c66 -2 83 1 86 13 8 29 3 645 -5 651
-7 4 -139 4 -169 0 -3 -1 -16 -19 -30 -41 -14 -22 -28 -40 -32 -40 -5 0 -8 -4
-8 -9 0 -5 -18 -35 -40 -67 -23 -33 -53 -77 -67 -99 -14 -22 -30 -41 -34 -43
-5 -2 -9 -9 -9 -15 0 -7 -13 -28 -29 -47 l-29 -34 2 188 c0 103 -2 193 -6 199
-7 11 -143 16 -161 5z"/>
<path d="M14111 9170 l-1 -80 94 0 95 0 0 -251 c0 -138 2 -253 5 -256 7 -8
151 -7 163 0 7 4 10 16 8 27 -2 11 1 20 7 20 7 0 6 5 -1 14 -8 10 -9 16 -1 21
6 3 7 12 3 18 -9 16 -10 297 0 297 4 0 4 8 -1 18 -7 14 -8 50 -3 84 1 4 40 7
88 6 100 -1 100 -1 98 102 l-1 55 -276 3 -276 2 -1 -80z"/>
<path d="M15570 9240 c-5 -3 -11 -25 -15 -50 -3 -25 -8 -56 -10 -70 -2 -14 -6
-47 -10 -75 -30 -250 -47 -304 -104 -335 -15 -7 -18 -22 -17 -77 1 -63 3 -68
23 -69 40 -2 122 32 152 64 66 69 97 168 117 372 10 102 2 95 101 93 48 -1 96
-2 106 -2 16 -1 17 -20 17 -256 l0 -256 88 3 87 3 0 327 c0 181 -2 328 -5 329
-19 4 -524 3 -530 -1z"/>
<path d="M618 7149 l-618 -616 0 -1581 0 -1582 1595 0 1594 0 340 338 c859
852 888 881 879 894 -6 11 -8 11 -8 0 0 -9 -5 -10 -19 -3 -11 7 -30 7 -50 1
-17 -5 -33 -5 -35 -1 -5 8 -99 6 -122 -3 -9 -3 -24 -2 -33 4 -11 6 -31 6 -50
0 -17 -5 -33 -5 -35 -1 -3 4 -26 6 -53 4 -65 -3 -86 -3 -174 -2 -41 0 -80 -1
-85 -2 -5 -1 -13 0 -19 1 -12 2 -128 2 -141 -1 -5 -1 -13 0 -19 1 -12 2 -128
2 -141 -1 -5 -1 -13 0 -19 1 -12 2 -128 2 -141 -1 -5 -1 -13 0 -19 1 -12 2
-128 2 -141 -1 -5 -1 -13 0 -19 1 -12 2 -128 2 -141 -1 -5 -1 -13 0 -19 1 -12
2 -128 2 -141 -1 -5 -1 -13 0 -19 1 -23 4 -136 1 -144 -5 -5 -3 -12 -1 -15 4
-4 6 -18 6 -36 1 -16 -5 -32 -5 -34 -1 -5 8 -99 6 -122 -3 -9 -3 -24 -2 -33 4
-11 6 -31 6 -50 0 -17 -5 -33 -5 -35 -1 -5 7 -126 5 -134 -3 -2 -3 -12 -1 -22
4 -11 6 -30 6 -49 0 -17 -5 -33 -5 -35 -1 -5 8 -99 6 -122 -3 -9 -3 -24 -2
-33 4 -11 6 -31 6 -50 0 -17 -5 -33 -5 -35 -1 -5 7 -126 5 -134 -3 -2 -3 -12
-1 -22 4 -11 6 -30 6 -49 0 -17 -5 -33 -5 -35 -1 -5 8 -99 6 -122 -3 -8 -3
-14 -1 -14 4 0 5 -13 5 -30 0 -18 -5 -32 -5 -35 1 -4 5 -13 5 -24 -1 -10 -5
-21 -6 -25 -3 -3 3 -21 6 -40 5 -24 -1 -35 3 -38 16 -2 9 -3 720 -3 1580 1
860 -1 1564 -4 1565 -3 1 -284 -275 -623 -614z"/>
<path d="M8245 6184 c0 -1237 -3 -1585 -12 -1588 -7 -3 -14 -2 -17 2 -5 8
-126 6 -134 -2 -2 -3 -12 -1 -22 4 -11 6 -30 6 -49 0 -17 -5 -33 -5 -35 -1 -5
8 -99 6 -121 -3 -8 -3 -17 -1 -20 4 -3 6 -15 6 -30 0 -14 -5 -27 -5 -30 0 -3
5 -18 5 -34 0 -16 -4 -32 -6 -35 -2 -6 5 -97 6 -121 2 -6 -1 -14 -1 -20 0 -12
2 -128 2 -141 -1 -5 -1 -13 0 -19 1 -12 2 -128 2 -141 -1 -5 -1 -13 0 -19 1
-12 2 -128 2 -141 -1 -5 -1 -13 0 -19 1 -12 2 -128 2 -141 -1 -5 -1 -13 0 -19
1 -12 2 -128 2 -141 -1 -5 -1 -13 0 -19 1 -12 2 -128 2 -141 -1 -5 -1 -13 0
-19 1 -12 2 -128 2 -141 -1 -5 -1 -13 0 -19 1 -20 4 -117 1 -122 -4 -3 -3 -13
-1 -23 4 -11 6 -30 6 -49 0 -17 -5 -33 -5 -35 -1 -5 8 -99 6 -122 -3 -9 -3
-24 -2 -33 4 -11 6 -31 6 -50 0 -17 -5 -33 -5 -35 -1 -5 7 -126 5 -134 -3 -2
-3 -12 -1 -22 4 -11 6 -30 6 -49 0 -17 -5 -33 -5 -35 -1 -5 8 -99 6 -122 -3
-9 -3 -24 -2 -33 4 -11 6 -31 6 -50 0 -17 -5 -33 -5 -35 -1 -5 7 -126 5 -134
-3 -2 -3 -12 -1 -22 4 -11 6 -30 6 -49 0 -17 -5 -33 -5 -36 0 -5 8 -43 5 -72
-5 -7 -2 -13 0 -13 5 0 5 -13 5 -30 0 -16 -5 -30 -5 -30 0 0 4 -10 6 -21 3
-18 -5 78 -104 597 -620 l619 -613 1594 2 1595 3 0 1578 1 1578 -611 607
c-336 334 -617 612 -625 619 -12 10 -14 -203 -14 -1573z"/>
</g>
</svg>
