<svg width="102" height="98" viewBox="0 0 102 98" fill="none" xmlns="http://www.w3.org/2000/svg">
<circle cx="53" cy="49" r="49" fill="#F5F4F3"/>
<g clip-path="url(#clip0_1501_6132)">
<path d="M72.0268 2H19.181C17.2085 2 15.3167 2.78139 13.9219 4.17229C12.5271 5.56318 11.7435 7.44965 11.7435 9.41667V69.9211C11.7435 71.0599 11.2898 72.152 10.4823 72.9573C9.67479 73.7625 8.57956 74.2149 7.43755 74.2149C6.29554 74.2149 5.20031 73.7625 4.39279 72.9573C3.58527 72.152 3.13161 71.0599 3.13161 69.9211V22.6886H9.3948V19.5658H0V69.9211C0 71.8881 0.783591 73.7746 2.1784 75.1655C3.57321 76.5563 5.46499 77.3377 7.43755 77.3377H21.1383V74.2149H13.4854C14.3846 72.9623 14.8703 71.4615 14.8751 69.9211V9.41667C14.8751 8.27787 15.3288 7.18571 16.1363 6.38046C16.9438 5.5752 18.039 5.12282 19.181 5.12282C20.3231 5.12282 21.4183 5.5752 22.2258 6.38046C23.0333 7.18571 23.487 8.27787 23.487 9.41667V91H79.4643V9.41667C79.4643 7.44965 78.6807 5.56318 77.2859 4.17229C75.8911 2.78139 73.9993 2 72.0268 2ZM76.3327 87.8772H26.6186V9.41667C26.6208 7.87813 26.1419 6.3772 25.2485 5.12282H72.0268C73.1672 5.12795 74.2594 5.58197 75.0658 6.38612C75.8723 7.19026 76.3276 8.27945 76.3327 9.41667V87.8772Z" fill="#A39061"/>
<path d="M32.8818 26.5921H37.1878V32.0765C37.1583 35.2852 38.3309 38.3894 40.476 40.7813L46.3477 46.5L40.476 52.3552C38.3742 54.7367 37.2308 57.8097 37.2661 60.982V66.4664H32.8818V69.5892H70.0696V66.4664H65.7636V60.982C65.7931 57.7732 64.6205 54.6691 62.4754 52.2772L56.6037 46.5585L62.4754 40.7032C64.5772 38.3217 65.7206 35.2487 65.6853 32.0765V26.5921H70.0696V23.4692H32.8818V26.5921ZM62.632 32.0765C62.6528 34.4473 61.8194 36.7467 60.2833 38.5563L52.1803 46.5L60.2246 54.307C61.7919 56.1331 62.6465 58.4613 62.632 60.8649V66.3493H40.3194V60.8649C40.2986 58.4941 41.132 56.1946 42.6681 54.385L50.7711 46.4414L42.6681 38.6929C41.1008 36.8668 40.2461 34.5386 40.2607 32.135V26.5921H62.5733L62.632 32.0765Z" fill="#A39061"/>
</g>
<defs>
<clipPath id="clip0_1501_6132">
<rect width="79.4643" height="89" fill="white" transform="translate(0 2)"/>
</clipPath>
</defs>
</svg>
