<svg width="122" height="107" viewBox="0 0 122 107" fill="none" xmlns="http://www.w3.org/2000/svg">
<circle cx="73" cy="57.1719" r="49" fill="#F5F4F3"/>
<g clip-path="url(#clip0_1116_6717)">
<path d="M31.8034 31.8834C33.1804 31.9316 34.5525 31.6953 35.8345 31.1891C37.1164 30.6829 38.2807 29.9176 39.2549 28.9409C40.2292 27.9642 40.9925 26.7969 41.4975 25.5117C42.0024 24.2266 42.2382 22.851 42.19 21.4705V17.1625C42.0643 14.4826 40.9139 11.9541 38.9777 10.1021C37.0414 8.25007 34.4681 7.2168 31.7919 7.2168C29.1158 7.2168 26.5424 8.25007 24.6062 10.1021C22.6699 11.9541 21.5196 14.4826 21.3939 17.1625V21.4705C21.3455 22.853 21.5819 24.2306 22.0883 25.5174C22.5946 26.8041 23.36 27.9725 24.3368 28.9496C25.3135 29.9266 26.4806 30.6914 27.7653 31.1962C29.0499 31.701 30.4246 31.9349 31.8034 31.8834ZM25.0705 17.1625C25.1708 15.4435 25.9227 13.8279 27.1722 12.6464C28.4217 11.4648 30.0743 10.8068 31.7919 10.8068C33.5095 10.8068 35.1622 11.4648 36.4117 12.6464C37.6612 13.8279 38.413 15.4435 38.5133 17.1625V21.4705C38.413 23.1896 37.6612 24.8051 36.4117 25.9867C35.1622 27.1682 33.5095 27.8263 31.7919 27.8263C30.0743 27.8263 28.4217 27.1682 27.1722 25.9867C25.9227 24.8051 25.1708 23.1896 25.0705 21.4705V17.1625Z" fill="#A39061"/>
<path d="M31.8032 34.6484C19.9689 34.6484 10.6853 41.0989 10.6853 49.3462V71.1165H0V94.1539H19.2566V103.046H22.9332V94.1539H27.2073V71.1165H22.9332V51.5118H19.2566V71.1165H14.362V49.3462C14.362 43.2644 22.1979 38.3344 31.8032 38.3344C41.4085 38.3344 49.2214 43.2644 49.2214 49.3462V66.5091C49.2214 69.6191 48.555 72.4988 44.3268 73.1208V51.5118H40.6502V103H44.3268V76.8528C48.578 76.3691 52.8981 74.0423 52.8981 66.5091V49.3462C52.8981 41.0989 43.6375 34.6484 31.8032 34.6484ZM23.5307 90.4218H3.67668V74.8025H23.5307V90.4218Z" fill="#A39061"/>
<path d="M35.7782 72.9592H32.1016V103H35.7782V72.9592Z" fill="#A39061"/>
<path d="M80.7258 77.5437V47.503L76.4517 43.2181V29.0501L69.5119 24.4196L65.7434 18.7524V0H62.0667V18.7524L58.39 24.4196L51.3584 29.0501V36.4681H55.0351V31.0313L61.0326 27.0689L63.928 22.6688L66.8464 27.0689L72.775 31.0313V44.7385L77.0491 49.0465V79.0872L81.3232 83.3722V102.977H84.9999V81.8287L80.7258 77.5437Z" fill="#A39061"/>
<path d="M61.4696 49.3457H57.793V57.9386H61.4696V49.3457Z" fill="#A39061"/>
<path d="M70.0175 49.3462H66.3408V57.9391H70.0175V49.3462Z" fill="#A39061"/>
<path d="M61.4696 62.2239H57.793V70.8168H61.4696V62.2239Z" fill="#A39061"/>
<path d="M70.0175 62.2239H66.3408V70.8168H70.0175V62.2239Z" fill="#A39061"/>
<path d="M61.4696 75.1018H57.793V83.6948H61.4696V75.1018Z" fill="#A39061"/>
<path d="M70.0175 75.1018H66.3408V83.6947H70.0175V75.1018Z" fill="#A39061"/>
<path d="M61.4696 87.9797H57.793V96.5727H61.4696V87.9797Z" fill="#A39061"/>
<path d="M70.0175 87.9796H66.3408V96.5726H70.0175V87.9796Z" fill="#A39061"/>
</g>
<defs>
<clipPath id="clip0_1116_6717">
<rect width="85" height="103" fill="white"/>
</clipPath>
</defs>
</svg>
