<svg width="107" height="102" viewBox="0 0 107 102" fill="none" xmlns="http://www.w3.org/2000/svg">
<circle cx="58" cy="52.1719" r="49" fill="#F5F4F3"/>
<path d="M40.3495 70.0678C33.922 70.0722 27.6377 68.1827 22.2916 64.6384C16.9455 61.0941 12.7779 56.0543 10.3162 50.1567C7.85444 44.259 7.20919 37.7686 8.46205 31.5065C9.71492 25.2445 12.8096 19.4924 17.3545 14.9779C21.8994 10.4634 27.6904 7.38937 33.9946 6.1449C40.2987 4.90042 46.8329 5.54135 52.7703 7.9866C58.7076 10.4319 63.7815 14.5715 67.3496 19.8819C70.9178 25.1922 72.82 31.4345 72.8156 37.819C72.8038 46.3683 69.3796 54.5641 63.2935 60.6094C57.2075 66.6548 48.9564 70.0562 40.3495 70.0678ZM40.3495 9.08455C34.6281 9.08455 29.0352 10.7698 24.278 13.9272C19.5208 17.0845 15.813 21.5723 13.6235 26.8228C11.434 32.0733 10.8612 37.8509 11.9773 43.4248C13.0935 48.9987 15.8487 54.1187 19.8943 58.1373C23.94 62.1559 29.0945 64.8925 34.706 66.0013C40.3174 67.11 46.1339 66.541 51.4198 64.3661C56.7057 62.1913 61.2236 58.5083 64.4023 53.783C67.5809 49.0576 69.2775 43.5021 69.2775 37.819C69.2775 30.1981 66.2297 22.8894 60.8047 17.5007C55.3796 12.1119 48.0217 9.08455 40.3495 9.08455Z" fill="#A39061"/>
<path d="M92.4866 96.1722C90.8174 96.1684 89.2175 95.5089 88.0361 94.3376L66.3401 72.7867C65.1507 71.5767 64.489 69.95 64.4981 68.2588C64.5073 66.5676 65.1866 64.9481 66.3891 63.7508C67.5915 62.5535 69.2203 61.8747 70.9228 61.8615C72.6254 61.8483 74.2647 62.5017 75.4858 63.6802L97.1818 85.231C98.0651 86.138 98.6613 87.2824 98.8967 88.5225C99.1321 89.7626 98.9963 91.0441 98.5061 92.2083C98.016 93.3726 97.1929 94.3686 96.1389 95.0731C95.0848 95.7776 93.846 96.1597 92.5756 96.1722H92.4866ZM70.9686 65.3821C70.3942 65.3771 69.8308 65.5382 69.347 65.8458C68.8632 66.1534 68.48 66.5942 68.2441 67.1144C68.0082 67.6346 67.9298 68.2118 68.0185 68.7755C68.1071 69.3392 68.359 69.8651 68.7434 70.2891L90.4394 91.8399C90.9748 92.3577 91.6948 92.6438 92.4421 92.6356C93.007 92.6252 93.5568 92.4531 94.0257 92.14C94.4946 91.827 94.8627 91.3863 95.0858 90.8707C95.3089 90.3551 95.3776 89.7866 95.2836 89.2332C95.1897 88.6798 94.937 88.1651 94.556 87.7508L72.86 66.1999C72.3624 65.6907 71.6829 65.3969 70.9686 65.3821Z" fill="#A39061"/>
<path d="M63.3471 58.0378L60.8291 60.5381L66.5084 66.1813L69.0264 63.681L63.3471 58.0378Z" fill="#A39061"/>
<path d="M17.451 46.4615L14.9365 43.9638L36.0317 23.0098L50.963 36.2055L61.3993 25.839L63.9138 28.3367L51.0965 41.0461L36.1652 27.8725L17.451 46.4615Z" fill="#A39061"/>
<path d="M75.5302 29.9943L72.9934 27.4966L84.4533 16.1134L87.7244 20.7551L91.7521 4.75223L75.3522 8.50981L80.3144 12.0243L72.1923 20.1141L69.6778 17.5943L74.8404 12.4884L66.874 6.82995L96.6031 0L89.3043 29.1544L83.9638 21.595L75.5302 29.9943Z" fill="#A39061"/>
<path d="M22.4364 54.7061L19.9219 52.2084L36.0325 36.2055L50.9638 49.3791L64.7158 35.7192L67.2303 38.239L51.0974 54.2419L36.1661 41.0462L22.4364 54.7061Z" fill="#A39061"/>
<path d="M6.64239 52.1454L0 58.7388L2.51667 61.2403L9.15905 54.647L6.64239 52.1454Z" fill="#A39061"/>
<path d="M11.6231 60.3948L0.00683594 71.9253L2.52353 74.4269L14.1398 62.8964L11.6231 60.3948Z" fill="#A39061"/>
</svg>
