<svg width="116" height="101" viewBox="0 0 116 101" fill="none" xmlns="http://www.w3.org/2000/svg">
<circle cx="67" cy="49" r="49" fill="#F5F4F3"/>
<g clip-path="url(#clip0_1430_6372)">
<path d="M30.2259 57.1069H33.5533V62.2667H37.2763V53.4048H26.5029V62.2667H30.2259V57.1069Z" fill="#A39061"/>
<path d="M30.2259 71.1518H33.5533V76.3116H37.2763V67.4497H26.5029V76.3116H30.2259V71.1518Z" fill="#A39061"/>
<path d="M46.1185 57.1069H49.4459V62.2667H53.1689V53.4048H42.3955V62.2667H46.1185V57.1069Z" fill="#A39061"/>
<path d="M30.2259 43.039H33.5533V48.2219H37.2763V39.3369H26.5029V48.2219H30.2259V43.039Z" fill="#A39061"/>
<path d="M46.1185 43.039H49.4459V48.2219H53.1689V39.3369H42.3955V48.2219H46.1185V43.039Z" fill="#A39061"/>
<path d="M46.1185 71.1518H49.4459V76.3116H53.1689V67.4497H42.3955V76.3116H46.1185V71.1518Z" fill="#A39061"/>
<path d="M5.30526 49.888H0V101H14.2172V97.298H3.72299V53.5901H14.2172V49.888H9.02825V46.5561H14.2172V42.854H5.30526V49.888Z" fill="#A39061"/>
<path d="M84.0231 19.6001L69.3405 5H17.4746V42.2986H17.6607V101H62.0109V96.5112H84.0231V19.6001ZM37.2763 97.2979V86.8626H42.3721V97.2053L37.2763 97.2979ZM58.2181 97.2979H46.1184V83.2531H33.5533V97.2979H21.4303V32.5112H58.3344L58.2181 97.2979ZM51.2375 28.8091H26.689V25.4772H51.2375V28.8091ZM80.3001 92.8091H62.0109V28.8091H55.0303V21.8677H22.966V28.8091H21.1976V8.7021H67.735L80.2303 21.1273L80.3001 92.8091Z" fill="#A39061"/>
</g>
<defs>
<clipPath id="clip0_1430_6372">
<rect width="84" height="96" fill="white" transform="translate(0 5)"/>
</clipPath>
</defs>
</svg>
