<svg width="112" height="115" viewBox="0 0 112 115" fill="none" xmlns="http://www.w3.org/2000/svg">
<circle cx="63" cy="66" r="49" fill="#F5F4F3"/>
<g clip-path="url(#clip0_1116_6760)">
<path d="M81.3446 0L64.4623 28.3889H73.4645V38.9126H57.5797V30.8444C57.5797 29.4223 57.0174 28.0584 56.0166 27.0528C55.0158 26.0473 53.6584 25.4823 52.2431 25.4823H32.2935C30.8781 25.4823 29.5208 26.0473 28.5201 27.0528C27.5193 28.0584 26.957 29.4223 26.957 30.8444V38.9126H5.5361C4.81659 38.8855 4.09904 39.005 3.42671 39.2639C2.75438 39.5228 2.14115 39.9158 1.62394 40.4191C1.10672 40.9224 0.696189 41.5257 0.417115 42.1926C0.13804 42.8595 -0.00379119 43.5762 7.70444e-05 44.2997V61.8391L0.598541 62.4405C1.50907 63.3852 2.52103 64.2255 3.6159 64.9461C10.9224 69.5565 22.2189 69.8071 33.5403 69.9574V75.5199C33.5403 76.7161 34.0133 77.8633 34.8551 78.7091C35.6969 79.5549 36.8386 80.0301 38.029 80.0301H46.4078C47.5963 80.0235 48.7342 79.5462 49.5746 78.7018C50.415 77.8574 50.89 76.7141 50.8966 75.5199V69.782C58.5028 70.085 66.1171 69.4369 73.5643 67.8527V68.9802C73.69 79.0312 69.8843 88.7303 62.9661 95.991H5.33656C4.97942 95.991 4.63691 95.8484 4.38438 95.5947C4.13184 95.3409 3.99002 94.9968 3.99002 94.6379V71.0098H7.70444e-05V94.6379C7.70444e-05 96.06 0.562339 97.4239 1.56313 98.4295C2.56392 99.4351 3.92123 100 5.33656 100H64.562C65.8639 98.7549 67.0725 97.4149 68.1779 95.991C74.3255 88.3536 77.6322 78.8024 77.5293 68.9802V24.3799H71.5693L81.5441 7.69231L91.9179 24.3799H86.0578V78.3513H89.9978V28.3889H99.0749L81.3446 0ZM30.7474 30.8444C30.7474 30.4855 30.8893 30.1414 31.1418 29.8877C31.3944 29.6339 31.7369 29.4914 32.094 29.4914H52.0436C52.4008 29.4914 52.7433 29.6339 52.9958 29.8877C53.2484 30.1414 53.3903 30.4855 53.3903 30.8444V38.9126H30.6477L30.7474 30.8444ZM46.8068 75.3445C46.8068 75.4774 46.7543 75.6049 46.6608 75.6989C46.5673 75.7929 46.4404 75.8456 46.3082 75.8456H37.9293C37.8628 75.8493 37.7964 75.8388 37.7342 75.8149C37.6721 75.791 37.6157 75.7542 37.5686 75.7069C37.5216 75.6596 37.485 75.6029 37.4612 75.5405C37.4374 75.4781 37.427 75.4113 37.4306 75.3445V63.568C37.427 63.5013 37.4374 63.4345 37.4612 63.3721C37.485 63.3096 37.5216 63.2529 37.5686 63.2056C37.6157 63.1584 37.6721 63.1216 37.7342 63.0977C37.7964 63.0738 37.8628 63.0633 37.9293 63.0669H46.3082C46.4404 63.0669 46.5673 63.1197 46.6608 63.2137C46.7543 63.3077 46.8068 63.4351 46.8068 63.568V75.3445ZM73.4645 63.6933C67.2303 65.6227 59.0011 65.773 50.7968 65.773V63.568C50.7902 62.3739 50.3152 61.2305 49.4748 60.3861C48.6344 59.5417 47.4966 59.0645 46.3082 59.0579H37.9293C36.7388 59.0579 35.5971 59.5331 34.7553 60.3789C33.9135 61.2247 33.4406 62.3719 33.4406 63.568V65.773C21.7452 65.773 9.9749 65.4723 3.99002 60.1854V44.2997C3.99002 43.9408 4.13184 43.5967 4.38438 43.3429C4.63691 43.0892 4.97942 42.9466 5.33656 42.9466H73.4645V63.6933Z" fill="#A39061"/>
</g>
<defs>
<clipPath id="clip0_1116_6760">
<rect width="99" height="100" fill="white"/>
</clipPath>
</defs>
</svg>
