<svg width="285" height="285" viewBox="0 0 285 285" fill="none" xmlns="http://www.w3.org/2000/svg">
<circle cx="142.5" cy="142.5" r="142.5" fill="#F4F4F4"/>

	<path fill-rule="evenodd" clip-rule="evenodd" d="M103.5,102.5c1.4,1.4,3,2.5,4.8,3.2c1.6,0.7,3.4,1,5.1,1h1.1c1.8,0,3.7-0.4,5.4-1.1c1.7-0.7,3.2-1.8,4.5-3.1
		c1.4-1.4,2.4-3,3.1-4.8c0.7-1.8,1-3.7,1-5.7v-6.4c-0.2-3.8-1.8-7.3-4.5-9.9c-2.7-2.6-6.3-4-10-4c-3.7,0-7.3,1.4-10,4
		c-2.7,2.6-4.3,6.1-4.5,9.9v6.4c-0.1,1.9,0.3,3.9,1,5.7C101.1,99.6,102.1,101.2,103.5,102.5z M103.3,85.9c0.1-2.7,1.3-5.3,3.3-7.2
		c2-1.9,4.6-2.9,7.3-2.9c2.7,0,5.3,1.1,7.3,2.9c2,1.9,3.2,4.5,3.3,7.2v6.4c-0.2,2.7-1.3,5.3-3.3,7.2c-2,1.9-4,2.9-7.3,2.9
		c-2.7,0-5.3-1.1-7.3-2.9c-2-1.9-3.2-4.5-3.3-7.2V85.9z" fill="#A39061"/>
	<path fill-rule="evenodd" clip-rule="evenodd" d="M115.8,170.4h-3.9v42.9h3.9V170.4z" fill="#A39061"/>
	<path fill-rule="evenodd" clip-rule="evenodd" d="M178.4,108.5h-22.2v3.9h22.2V108.5z" fill="#A39061"/>
	<path fill-rule="evenodd" clip-rule="evenodd" d="M185.7,129H149v3.9h36.7V129z" fill="#A39061"/>
	<path fill-rule="evenodd" clip-rule="evenodd" d="M185.7,143.7H149v3.9h36.7V143.7z" fill="#A39061"/>
	<path fill-rule="evenodd" clip-rule="evenodd" d="M201.3,97.9l-15.1-13.8h-52.8l0.1,33.1v1.3c-0.4-0.2-0.7-0.4-1.1-0.6c-5.7-2.9-12-4.3-18.4-4.2
		c-16.9,0-30.2,9.2-30.2,21V163c0,3.1,1.2,6,3.4,8.2c2.2,2.2,5.1,3.4,8.2,3.4h0.9l0.1,26.3v12.4h3.9v-74.6h-3.9v31.9h-0.8
		c-1,0-2.1-0.2-3-0.6c-1-0.4-1.8-1-2.6-1.7c-0.7-0.7-1.3-1.6-1.7-2.6c-0.4-1-0.6-2-0.6-3v-27.9c0-8.9,10.7-16.3,24.2-17l-2.8,36
		l4.9,5.2l4.9-5.2l-2.8-36c6.5,0.3,12.7,2.2,17.2,5.3l0.5,0.4l0.7,0.5l0.4,0.3c0.2,0.2,0.4,0.4,0.7,0.6l0.3,0.2
		c0.3,0.3,0.6,0.6,0.8,0.8l0.2,0.2l0.6,0.7c0.6,0.7,1.1,1.4,1.5,2.2c1,1.7,1.5,3.7,1.5,5.7V160c0,1.5-0.1,3.1-0.5,4.6
		c-0.1,0.3-0.2,0.5-0.3,0.8c-0.1,0.3-0.2,0.5-0.3,0.7l-0.2,0.5c-0.1,0.2-0.3,0.4-0.4,0.6c-0.1,0.1-0.2,0.2-0.3,0.4
		c-0.2,0.2-0.4,0.4-0.6,0.6l-0.2,0.2c-0.3,0.3-0.6,0.5-1,0.7c-1.1,0.6-2.2,1.1-3.4,1.3l-0.7,0.1l-0.9,0.1v-32h-3.9v74.5h3.9v-38.6
		l0.7-0.1c4.3-0.5,7.5-2.2,9.5-5.1c0.1-0.1,0.1-0.2,0.2-0.3h59.4V97.9z M143.5,165.1c0.1-0.3,0.1-0.6,0.2-0.9
		c0.3-1.4,0.4-2.8,0.4-4.2v-25.3c0-4.9-2.2-9.4-6.5-13.2l-0.3-0.2V88.2h47.1l12.9,11.4l0.1,65.6H143.5z" fill="#A39061"/>
</svg>
