<svg width="285" height="285" viewBox="0 0 285 285" fill="none" xmlns="http://www.w3.org/2000/svg">
<circle cx="142.5" cy="142.5" r="142.5" fill="#F4F4F4"/>
<path fill-rule="evenodd" clip-rule="evenodd" d="M161.695 143.348C155.884 143.348 151.348 138.479 151.348 132.12V127.706C151.348 121.347 155.884 116.478 161.695 116.478C167.507 116.478 172.043 121.347 172.043 127.706V132.12C172.043 138.479 167.507 143.348 161.695 143.348ZM147.348 132.12C147.348 140.369 153.369 147.348 161.695 147.348C170.022 147.348 176.043 140.369 176.043 132.12V127.706C176.043 119.457 170.022 112.478 161.695 112.478C153.369 112.478 147.348 119.457 147.348 127.706V132.12Z" fill="#A39061"/>
<path fill-rule="evenodd" clip-rule="evenodd" d="M121.567 152.609C115.755 152.609 111.219 147.74 111.219 141.381V136.967C111.219 130.608 115.755 125.739 121.567 125.739C127.378 125.739 131.914 130.608 131.914 136.967V141.381C131.914 147.74 127.378 152.609 121.567 152.609ZM107.219 141.381C107.219 149.63 113.24 156.609 121.567 156.609C129.893 156.609 135.914 149.63 135.914 141.381V136.967C135.914 128.718 129.893 121.739 121.567 121.739C113.24 121.739 107.219 128.718 107.219 136.967V141.381Z" fill="#A39061"/>
<path fill-rule="evenodd" clip-rule="evenodd" d="M135.912 204V173.13C135.912 166.549 137.675 162.558 140.356 160.165C143.081 157.733 147.134 156.609 152.434 156.609H174.648L175.152 156.273C178.288 154.182 181.661 151.883 185.019 149.593C190.739 145.693 196.418 141.822 200.813 139.059C203.664 147.731 200.449 153.751 197.484 156.138C195.847 157.456 190.512 161.268 185.505 164.806C183.019 166.562 180.639 168.233 178.88 169.465C178.001 170.082 177.277 170.588 176.773 170.94L175.986 171.489C175.986 171.489 175.985 171.49 177.13 173.13L175.986 171.489L175.13 172.087V204H179.13V174.173C179.631 173.823 180.332 173.333 181.175 172.741C182.937 171.507 185.322 169.833 187.813 168.072C192.761 164.577 198.231 160.671 199.992 159.254C204.695 155.469 208.525 146.677 203.664 135.301L202.762 133.189L200.794 134.373C196.111 137.19 189.333 141.811 182.614 146.391C179.468 148.535 176.335 150.671 173.436 152.609H152.434C146.67 152.609 141.462 153.817 137.692 157.181C133.878 160.586 131.912 165.855 131.912 173.13V204H135.912Z" fill="#A39061"/>
<path fill-rule="evenodd" clip-rule="evenodd" d="M101.957 204V182.391C101.957 175.81 103.72 171.819 106.401 169.426C109.126 166.994 113.179 165.87 118.479 165.87H127.739L127.74 161.87H118.479C112.715 161.87 107.507 163.078 103.737 166.442C99.9229 169.846 97.957 175.116 97.957 182.391V204H101.957Z" fill="#A39061"/>
<path fill-rule="evenodd" clip-rule="evenodd" d="M81.4357 168.043C75.6241 168.043 71.0879 163.175 71.0879 156.815V152.402C71.0879 146.043 75.6241 141.174 81.4357 141.174C87.2474 141.174 91.7835 146.043 91.7835 152.402V156.815C91.7835 163.175 87.2474 168.043 81.4357 168.043ZM67.0879 156.815C67.0879 165.065 73.1089 172.043 81.4357 172.043C89.7626 172.043 95.7835 165.065 95.7835 156.815V152.402C95.7835 144.153 89.7626 137.174 81.4357 137.174C73.1089 137.174 67.0879 144.153 67.0879 152.402V156.815Z" fill="#A39061"/>
<path fill-rule="evenodd" clip-rule="evenodd" d="M68 204V197.826C68 191.245 69.7632 187.254 72.4437 184.861C75.1689 182.429 79.2219 181.304 84.5217 181.304H93.7819L93.7825 177.304H84.5217C78.758 177.304 73.5501 178.512 69.7803 181.877C65.9659 185.281 64 190.55 64 197.826V204H68Z" fill="#A39061"/>
<path fill-rule="evenodd" clip-rule="evenodd" d="M148.262 204V173.13H144.262V204H148.262Z" fill="#A39061"/>
<path fill-rule="evenodd" clip-rule="evenodd" d="M199.826 62V136.087H203.826V62H199.826Z" fill="#A39061"/>
<path fill-rule="evenodd" clip-rule="evenodd" d="M136.852 104.13H172.957V95.9565H168.957V100.13H143.324L148.498 89.7826L143.324 79.4348H164.783V75.4348H136.852L144.025 89.7826L136.852 104.13Z" fill="#A39061"/>
<path fill-rule="evenodd" clip-rule="evenodd" d="M168.957 97.9565H203.827V69.2609H168.957V97.9565ZM172.957 93.9565V73.2609H199.827V93.9565H172.957Z" fill="#A39061"/>
</svg>
