<svg width="284" height="284" viewBox="0 0 284 284" fill="none" xmlns="http://www.w3.org/2000/svg">
<circle cx="142" cy="142" r="142" fill="#F4F4F4"/>
<path fill-rule="evenodd" clip-rule="evenodd" d="M121.752 224C122.857 224 123.752 223.104 123.752 222V214.608C123.753 214.607 123.768 214.471 123.945 214.179C124.139 213.86 124.469 213.456 124.963 212.989C125.95 212.055 127.422 211.033 129.227 210.083C132.853 208.173 137.467 206.735 141.492 206.735C145.512 206.735 150.124 208.173 153.749 210.083C155.553 211.033 157.025 212.055 158.012 212.988C158.506 213.455 158.836 213.86 159.03 214.179C159.208 214.472 159.222 214.608 159.223 214.608L159.223 222C159.223 223.104 160.118 224 161.223 224C162.327 224 163.223 223.104 163.223 222V214.601C163.223 213.657 162.874 212.802 162.447 212.1C162.013 211.386 161.424 210.709 160.76 210.082C159.434 208.827 157.634 207.608 155.613 206.544C151.59 204.424 146.336 202.735 141.492 202.735C136.644 202.735 131.388 204.424 127.363 206.544C125.342 207.608 123.542 208.827 122.215 210.082C121.551 210.709 120.962 211.386 120.528 212.1C120.1 212.802 119.752 213.657 119.752 214.601V222C119.752 223.104 120.647 224 121.752 224Z" fill="#A39061"/>
<path fill-rule="evenodd" clip-rule="evenodd" d="M141.474 202.735C135.419 202.735 131.143 197.752 131.143 190.997V186.411C131.143 179.647 135.418 174.673 141.474 174.673C147.521 174.673 151.806 179.648 151.806 186.411V190.997C151.806 197.751 147.52 202.735 141.474 202.735ZM127.143 190.997C127.143 199.405 132.693 206.735 141.474 206.735C150.245 206.735 155.806 199.406 155.806 190.997V186.411C155.806 177.99 150.244 170.673 141.474 170.673C132.693 170.673 127.143 177.991 127.143 186.411V190.997Z" fill="#A39061"/>
<path fill-rule="evenodd" clip-rule="evenodd" d="M121.752 113.324C122.857 113.324 123.752 112.428 123.752 111.324V103.932C123.753 103.931 123.768 103.795 123.945 103.503C124.139 103.184 124.469 102.78 124.963 102.313C125.95 101.379 127.422 100.357 129.227 99.407C132.853 97.4972 137.467 96.0595 141.492 96.0595C145.512 96.0595 150.124 97.497 153.749 99.4069C155.553 100.357 157.025 101.379 158.012 102.313C158.506 102.78 158.836 103.184 159.03 103.503C159.208 103.796 159.222 103.932 159.223 103.932L159.223 111.324C159.223 112.428 160.118 113.324 161.223 113.324C162.327 113.324 163.223 112.428 163.223 111.324V103.925C163.223 102.981 162.874 102.126 162.447 101.424C162.013 100.71 161.424 100.033 160.76 99.406C159.434 98.1515 157.634 96.9322 155.613 95.8679C151.59 93.7483 146.336 92.0595 141.492 92.0595C136.644 92.0595 131.388 93.7481 127.363 95.8678C125.342 96.9321 123.542 98.1513 122.215 99.4059C121.551 100.033 120.962 100.71 120.528 101.424C120.1 102.126 119.752 102.981 119.752 103.925V111.324C119.752 112.428 120.647 113.324 121.752 113.324Z" fill="#A39061"/>
<path fill-rule="evenodd" clip-rule="evenodd" d="M141.474 92.0625C135.419 92.0625 131.143 87.0796 131.143 80.3243V75.7384C131.143 68.9744 135.418 64.0002 141.474 64.0002C147.521 64.0002 151.806 68.9755 151.806 75.7384V80.3243C151.806 87.0785 147.52 92.0625 141.474 92.0625ZM127.143 80.3243C127.143 88.733 132.693 96.0625 141.474 96.0625C150.245 96.0625 155.806 88.7341 155.806 80.3243V75.7384C155.806 67.318 150.244 60.0002 141.474 60.0002C132.693 60.0002 127.143 67.3191 127.143 75.7384V80.3243Z" fill="#A39061"/>
<path fill-rule="evenodd" clip-rule="evenodd" d="M176.398 173.094C177.503 173.094 178.398 172.199 178.398 171.094V163.702C178.399 163.701 178.414 163.565 178.591 163.274C178.786 162.954 179.115 162.55 179.609 162.083C180.597 161.149 182.068 160.128 183.873 159.177C187.5 157.268 192.114 155.83 196.139 155.83C200.159 155.83 204.77 157.267 208.396 159.177C210.2 160.128 211.671 161.149 212.659 162.083C213.153 162.55 213.482 162.954 213.677 163.274C213.855 163.566 213.869 163.702 213.869 163.702L213.869 171.094C213.869 172.199 214.765 173.094 215.869 173.094C216.974 173.094 217.869 172.199 217.869 171.094V163.695C217.869 162.752 217.521 161.897 217.094 161.194C216.659 160.481 216.07 159.804 215.407 159.176C214.08 157.922 212.28 156.703 210.26 155.638C206.236 153.519 200.982 151.83 196.139 151.83C191.291 151.83 186.034 153.519 182.009 155.638C179.988 156.703 178.188 157.922 176.861 159.176C176.198 159.803 175.609 160.481 175.174 161.194C174.747 161.897 174.398 162.752 174.398 163.695V171.094C174.398 172.199 175.294 173.094 176.398 173.094Z" fill="#A39061"/>
<path fill-rule="evenodd" clip-rule="evenodd" d="M196.134 151.83C190.079 151.83 185.803 146.847 185.803 140.092V135.506C185.803 128.742 190.079 123.768 196.134 123.768C202.181 123.768 206.466 128.743 206.466 135.506V140.092C206.466 146.846 202.181 151.83 196.134 151.83ZM181.803 140.092C181.803 148.5 187.353 155.83 196.134 155.83C204.905 155.83 210.466 148.502 210.466 140.092V135.506C210.466 127.085 204.905 119.768 196.134 119.768C187.354 119.768 181.803 127.087 181.803 135.506V140.092Z" fill="#A39061"/>
<path fill-rule="evenodd" clip-rule="evenodd" d="M69 173.094C70.1046 173.094 71 172.199 71 171.094V163.702C71.0009 163.701 71.0156 163.565 71.1927 163.274C71.3873 162.954 71.7166 162.55 72.2106 162.083C73.1984 161.149 74.6699 160.128 76.4746 159.177C80.1014 157.268 84.7153 155.83 88.7403 155.83C92.7602 155.83 97.3716 157.267 100.997 159.177C102.801 160.128 104.273 161.149 105.26 162.083C105.754 162.55 106.084 162.954 106.278 163.274C106.456 163.566 106.47 163.702 106.471 163.702L106.471 171.094C106.471 172.199 107.366 173.094 108.471 173.094C109.575 173.094 110.471 172.199 110.471 171.094V163.695C110.471 162.752 110.122 161.897 109.695 161.194C109.261 160.481 108.672 159.804 108.008 159.176C106.682 157.922 104.882 156.703 102.861 155.638C98.8377 153.519 93.5838 151.83 88.7403 151.83C83.8923 151.83 78.636 153.519 74.6109 155.638C72.5897 156.703 70.7897 157.922 69.4627 159.176C68.7993 159.803 68.2102 160.481 67.7758 161.194C67.3484 161.897 67 162.752 67 163.695V171.094C67 172.199 67.8954 173.094 69 173.094Z" fill="#A39061"/>
<path fill-rule="evenodd" clip-rule="evenodd" d="M88.734 151.83C82.6791 151.83 78.4023 146.847 78.4023 140.092V135.506C78.4023 128.742 82.6783 123.768 88.734 123.768C94.7811 123.768 99.0656 128.743 99.0656 135.506V140.092C99.0656 146.846 94.7802 151.83 88.734 151.83ZM74.4023 140.092C74.4023 148.5 79.9524 155.83 88.734 155.83C97.505 155.83 103.066 148.502 103.066 140.092V135.506C103.066 127.085 97.5042 119.768 88.734 119.768C79.9532 119.768 74.4023 127.087 74.4023 135.506V140.092Z" fill="#A39061"/>
<path fill-rule="evenodd" clip-rule="evenodd" d="M198.243 108.759C191.015 98.7333 180.839 90.9749 168.964 86.7708L167.629 90.5415C178.722 94.4687 188.237 101.72 194.998 111.098L198.243 108.759Z" fill="#A39061"/>
<path fill-rule="evenodd" clip-rule="evenodd" d="M84.0359 111.551C83.1399 110.905 82.9372 109.655 83.5832 108.759C90.811 98.7333 100.987 90.9749 112.862 86.7709L114.197 90.5416C103.104 94.4687 93.5888 101.72 86.8279 111.098C86.1819 111.994 84.9319 112.197 84.0359 111.551Z" fill="#A39061"/>
<path fill-rule="evenodd" clip-rule="evenodd" d="M198.243 187.063C191.015 197.089 180.839 204.847 168.964 209.051L167.629 205.28C178.722 201.353 188.237 194.102 194.998 184.724L198.243 187.063Z" fill="#A39061"/>
<path fill-rule="evenodd" clip-rule="evenodd" d="M83.5822 187.063C90.81 197.089 100.986 204.847 112.861 209.051C113.903 209.42 115.045 208.874 115.414 207.833C115.783 206.792 115.237 205.649 114.196 205.28C103.103 201.353 93.5877 194.102 86.8268 184.724L83.5822 187.063Z" fill="#A39061"/>
<path fill-rule="evenodd" clip-rule="evenodd" d="M142.428 145.418C140.862 145.418 139.59 144.147 139.59 142.58C139.59 141.013 140.862 139.741 142.428 139.741C144 139.741 145.267 141.011 145.267 142.58C145.267 144.148 144 145.418 142.428 145.418ZM135.59 142.58C135.59 146.356 138.653 149.418 142.428 149.418C146.212 149.418 149.267 146.354 149.267 142.58C149.267 138.806 146.212 135.741 142.428 135.741C138.653 135.741 135.59 138.804 135.59 142.58Z" fill="#A39061"/>
<path fill-rule="evenodd" clip-rule="evenodd" d="M144.997 162.634C145.483 163.501 146.531 163.881 147.459 163.525L152.713 161.508C153.643 161.152 154.169 160.166 153.947 159.195L153.27 156.238C154.082 155.594 154.828 154.883 155.502 154.118L158.42 154.944C159.377 155.215 160.387 154.742 160.792 153.834L163.085 148.693C163.49 147.784 163.166 146.716 162.323 146.186L159.75 144.567C159.866 143.557 159.897 142.53 159.834 141.493L162.479 140.017C163.347 139.532 163.728 138.483 163.372 137.555L161.356 132.294C160.999 131.364 160.013 130.838 159.042 131.06L156.085 131.737C155.44 130.925 154.729 130.182 153.964 129.51L154.791 126.586C155.062 125.629 154.588 124.618 153.679 124.214L148.538 121.927C147.63 121.523 146.563 121.847 146.033 122.688L144.414 125.258C143.402 125.142 142.374 125.113 141.342 125.176L139.864 122.528C139.379 121.659 138.328 121.278 137.399 121.636L132.145 123.658C131.217 124.015 130.692 125 130.913 125.969L131.585 128.922C130.773 129.568 130.03 130.28 129.358 131.043L126.433 130.216C125.476 129.945 124.465 130.419 124.061 131.327L121.774 136.468C121.37 137.377 121.695 138.445 122.537 138.974L125.108 140.592C124.99 141.605 124.961 142.633 125.025 143.667L122.381 145.143C121.513 145.628 121.132 146.677 121.488 147.605L123.504 152.866C123.86 153.795 124.846 154.321 125.816 154.1L128.771 153.427C129.416 154.237 130.127 154.981 130.89 155.654L130.063 158.573C129.792 159.531 130.266 160.542 131.175 160.946L136.323 163.233C137.231 163.637 138.299 163.311 138.828 162.469L140.44 159.905C141.453 160.023 142.482 160.052 143.516 159.987L144.997 162.634ZM147.642 159.17L146.365 156.888C145.96 156.165 145.153 155.767 144.334 155.885C142.818 156.104 141.301 156.055 139.836 155.764C139.023 155.603 138.195 155.96 137.753 156.662L136.363 158.874L134.384 157.995L135.096 155.48C135.321 154.684 135.034 153.832 134.373 153.336C133.178 152.438 132.119 151.34 131.265 150.07C130.804 149.384 129.968 149.053 129.162 149.236L126.619 149.815L125.843 147.791L128.123 146.519C128.847 146.115 129.246 145.307 129.128 144.487C128.909 142.971 128.958 141.454 129.249 139.989C129.41 139.176 129.054 138.348 128.352 137.907L126.133 136.511L127.012 134.536L129.534 135.249C130.329 135.474 131.181 135.187 131.677 134.526C132.577 133.329 133.669 132.272 134.94 131.421C135.628 130.96 135.961 130.122 135.777 129.315L135.197 126.769L137.217 125.992L138.488 128.27C138.891 128.991 139.695 129.391 140.513 129.276C142.033 129.062 143.555 129.111 145.025 129.397C145.835 129.555 146.659 129.199 147.099 128.5L148.494 126.286L150.471 127.165L149.757 129.687C149.532 130.484 149.821 131.337 150.484 131.833C151.683 132.729 152.733 133.819 153.586 135.093C154.047 135.782 154.886 136.115 155.694 135.93L158.242 135.347L159.017 137.368L156.737 138.641C156.013 139.045 155.614 139.852 155.732 140.672C155.95 142.191 155.897 143.71 155.61 145.176C155.451 145.988 155.808 146.813 156.508 147.253L158.725 148.648L157.844 150.624L155.327 149.911C154.53 149.685 153.676 149.974 153.18 150.637C152.286 151.833 151.19 152.885 149.914 153.739C149.225 154.2 148.892 155.039 149.077 155.847L149.66 158.396L147.642 159.17Z" fill="#A39061"/>
</svg>
