<svg width="286" height="285" viewBox="0 0 286 285" fill="none" xmlns="http://www.w3.org/2000/svg">
<circle cx="143" cy="142.5" r="142.5" fill="#F5F4F3"/>
<path fill-rule="evenodd" clip-rule="evenodd" d="M120.818 211.599C121.451 212.075 122.305 212.132 122.996 211.745L144.425 199.755L165.854 211.745C166.544 212.132 167.398 212.075 168.031 211.599C168.664 211.124 168.957 210.32 168.779 209.549L163.335 186.02L182.035 168.858C182.625 168.316 182.835 167.475 182.568 166.719C182.302 165.964 181.61 165.44 180.811 165.389L156.119 163.796L146.269 140.274C145.958 139.53 145.23 139.047 144.424 139.047C143.618 139.047 142.891 139.531 142.579 140.275L132.743 163.796L108.051 165.389C107.252 165.44 106.56 165.964 106.294 166.719C106.027 167.474 106.237 168.316 106.827 168.858L125.514 186.019L120.07 209.549C119.892 210.32 120.185 211.124 120.818 211.599ZM124.986 206.048L129.674 185.785C129.837 185.084 129.609 184.349 129.078 183.862L112.982 169.079L134.238 167.708C134.996 167.659 135.661 167.185 135.954 166.484L144.426 146.228L152.908 166.485C153.201 167.185 153.866 167.659 154.624 167.708L175.878 169.079L159.771 183.861C159.24 184.348 159.013 185.083 159.175 185.785L163.863 206.048L145.401 195.718C144.794 195.378 144.055 195.378 143.448 195.718L124.986 206.048Z" fill="#A39061"/>
<path fill-rule="evenodd" clip-rule="evenodd" d="M204.427 192.168C205.06 191.693 205.353 190.889 205.174 190.118L200.714 170.853L216.03 156.793C216.62 156.252 216.83 155.41 216.564 154.654C216.297 153.899 215.605 153.375 214.806 153.324L194.596 152.025L186.547 132.768C186.236 132.024 185.508 131.54 184.702 131.54C183.895 131.54 183.168 132.024 182.856 132.767L174.794 152.025L167.479 152.494L167.735 156.486L176.288 155.937C177.047 155.888 177.712 155.414 178.005 154.713L184.7 138.722L191.384 154.712C191.677 155.414 192.343 155.888 193.101 155.937L209.873 157.015L197.15 168.694C196.619 169.182 196.391 169.917 196.554 170.619L200.258 186.619L185.677 178.469C185.071 178.131 184.332 178.13 183.726 178.469L173.347 184.265L175.297 187.757L184.701 182.506L202.25 192.315C202.941 192.701 203.794 192.643 204.427 192.168Z" fill="#A39061"/>
<path fill-rule="evenodd" clip-rule="evenodd" d="M81.7503 192.168C82.3829 192.643 83.2363 192.701 83.9271 192.315L101.489 182.506L110.88 187.757L112.832 184.266L102.465 178.469C101.859 178.13 101.12 178.13 100.514 178.469L85.9189 186.621L89.624 170.619C89.7866 169.917 89.5589 169.182 89.028 168.694L76.3045 157.015L93.0766 155.937C93.8347 155.888 94.4997 155.414 94.7931 154.713L101.488 138.722L108.172 154.712C108.465 155.414 109.131 155.888 109.89 155.937L118.456 156.486L118.712 152.494L111.384 152.025L103.334 132.768C103.023 132.024 102.296 131.54 101.49 131.54C100.683 131.54 99.9558 132.024 99.6444 132.767L91.5823 152.025L71.3718 153.324C70.5723 153.375 69.8806 153.899 69.614 154.654C69.3475 155.41 69.5574 156.252 70.1476 156.793L85.4641 170.853L81.0034 190.118C80.8249 190.889 81.1177 191.692 81.7503 192.168Z" fill="#A39061"/>
<path fill-rule="evenodd" clip-rule="evenodd" d="M123.355 144.634V126.659C123.355 126.228 123.668 125.381 124.877 124.203C126.027 123.082 127.733 121.917 129.831 120.857C134.035 118.734 139.443 117.22 144.221 117.22C148.998 117.22 154.414 118.734 158.624 120.858C160.725 121.917 162.435 123.083 163.587 124.204C164.799 125.383 165.112 126.229 165.112 126.659V144.634H169.112V126.659C169.112 124.598 167.849 122.77 166.377 121.337C164.845 119.847 162.761 118.464 160.426 117.286C155.763 114.935 149.733 113.22 144.221 113.22C138.708 113.22 132.684 114.935 128.028 117.287C125.695 118.465 123.615 119.848 122.085 121.339C120.615 122.772 119.355 124.6 119.355 126.659V144.634H123.355Z" fill="#A39061"/>
<path fill-rule="evenodd" clip-rule="evenodd" d="M136.398 100.745C134.328 99.1079 133.158 96.9916 133.158 94.8183V86.5965C133.158 84.4231 134.328 82.3068 136.398 80.6692C138.466 79.033 141.297 78 144.231 78C147.166 78 149.996 79.033 152.064 80.6692C154.134 82.3068 155.305 84.4231 155.305 86.5965V94.8183C155.305 96.9916 154.134 99.1079 152.064 100.745C149.996 102.382 147.166 103.415 144.231 103.415C141.297 103.415 138.466 102.382 136.398 100.745ZM133.916 103.882C136.693 106.079 140.399 107.415 144.231 107.415C148.064 107.415 151.769 106.079 154.546 103.882C157.321 101.687 159.305 98.5048 159.305 94.8183V86.5965C159.305 82.9099 157.321 79.7279 154.546 77.5323C151.769 75.3353 148.064 74 144.231 74C140.399 74 136.693 75.3353 133.916 77.5323C131.141 79.7279 129.158 82.9099 129.158 86.5965V94.8183C129.158 98.5048 131.141 101.687 133.916 103.882Z" fill="#A39061"/>
</svg>
